<?xml version="1.0" encoding="UTF-8"?>
<svg xmlns="http://www.w3.org/2000/svg" xmlns:xlink="http://www.w3.org/1999/xlink" width="90pt" height="89.999999pt" viewBox="0 0 90 89.999999" version="1.2">
<defs>
<clipPath id="clip1">
  <path d="M 22.304688 25.566406 L 68.054688 25.566406 L 68.054688 64.566406 L 22.304688 64.566406 Z M 22.304688 25.566406 "/>
</clipPath>
</defs>
<g id="surface1">
<g clip-path="url(#clip1)" clip-rule="nonzero">
<path style=" stroke:none;fill-rule:nonzero;fill:rgb(24.308777%,75.689697%,83.529663%);fill-opacity:1;" d="M 24.78125 25.566406 C 23.429688 25.566406 22.332031 26.664062 22.332031 28.003906 L 22.332031 62.128906 C 22.332031 63.472656 23.429688 64.566406 24.78125 64.566406 L 65.582031 64.566406 C 66.929688 64.566406 68.03125 63.472656 68.03125 62.128906 L 68.03125 28.003906 C 68.03125 26.664062 66.929688 25.566406 65.582031 25.566406 Z M 24.78125 27.191406 L 65.582031 27.191406 C 66.03125 27.191406 66.398438 27.558594 66.398438 28.003906 L 66.398438 62.128906 C 66.398438 62.578125 66.03125 62.941406 65.582031 62.941406 L 24.78125 62.941406 C 24.332031 62.941406 23.964844 62.578125 23.964844 62.128906 L 23.964844 35.316406 L 57.421875 35.316406 C 57.875 35.316406 58.238281 34.953125 58.238281 34.503906 C 58.238281 34.058594 57.875 33.691406 57.421875 33.691406 L 23.964844 33.691406 L 23.964844 28.003906 C 23.964844 27.558594 24.332031 27.191406 24.78125 27.191406 Z M 27.226562 28.816406 C 26.773438 28.816406 26.410156 29.183594 26.410156 29.628906 L 26.410156 31.253906 C 26.410156 31.703125 26.773438 32.066406 27.226562 32.066406 C 27.679688 32.066406 28.042969 31.703125 28.042969 31.253906 L 28.042969 29.628906 C 28.042969 29.183594 27.679688 28.816406 27.226562 28.816406 Z M 31.308594 28.816406 C 30.855469 28.816406 30.492188 29.183594 30.492188 29.628906 L 30.492188 31.253906 C 30.492188 31.703125 30.855469 32.066406 31.308594 32.066406 C 31.761719 32.066406 32.125 31.703125 32.125 31.253906 L 32.125 29.628906 C 32.125 29.183594 31.761719 28.816406 31.308594 28.816406 Z M 35.386719 28.816406 C 34.9375 28.816406 34.574219 29.183594 34.574219 29.628906 L 34.574219 31.253906 C 34.574219 31.703125 34.9375 32.066406 35.386719 32.066406 C 35.839844 32.066406 36.203125 31.703125 36.203125 31.253906 L 36.203125 29.628906 C 36.203125 29.183594 35.839844 28.816406 35.386719 28.816406 Z M 39.46875 28.816406 C 39.015625 28.816406 38.652344 29.183594 38.652344 29.628906 L 38.652344 31.253906 C 38.652344 31.703125 39.015625 32.066406 39.46875 32.066406 C 39.921875 32.066406 40.285156 31.703125 40.285156 31.253906 L 40.285156 29.628906 C 40.285156 29.183594 39.921875 28.816406 39.46875 28.816406 Z M 43.550781 28.816406 C 43.097656 28.816406 42.734375 29.183594 42.734375 29.628906 L 42.734375 31.253906 C 42.734375 31.703125 43.097656 32.066406 43.550781 32.066406 C 44 32.066406 44.363281 31.703125 44.363281 31.253906 L 44.363281 29.628906 C 44.363281 29.183594 44 28.816406 43.550781 28.816406 Z M 47.628906 28.816406 C 47.175781 28.816406 46.8125 29.183594 46.8125 29.628906 L 46.8125 31.253906 C 46.8125 31.703125 47.175781 32.066406 47.628906 32.066406 C 48.082031 32.066406 48.445312 31.703125 48.445312 31.253906 L 48.445312 29.628906 C 48.445312 29.183594 48.082031 28.816406 47.628906 28.816406 Z M 51.710938 28.816406 C 51.257812 28.816406 50.894531 29.183594 50.894531 29.628906 L 50.894531 31.253906 C 50.894531 31.703125 51.257812 32.066406 51.710938 32.066406 C 52.160156 32.066406 52.527344 31.703125 52.527344 31.253906 L 52.527344 29.628906 C 52.527344 29.183594 52.160156 28.816406 51.710938 28.816406 Z M 55.789062 28.816406 C 55.335938 28.816406 54.972656 29.183594 54.972656 29.628906 L 54.972656 31.253906 C 54.972656 31.703125 55.335938 32.066406 55.789062 32.066406 C 56.242188 32.066406 56.605469 31.703125 56.605469 31.253906 L 56.605469 29.628906 C 56.605469 29.183594 56.242188 28.816406 55.789062 28.816406 Z M 59.871094 28.816406 C 59.417969 28.816406 59.054688 29.183594 59.054688 29.628906 L 59.054688 31.253906 C 59.054688 31.703125 59.417969 32.066406 59.871094 32.066406 C 60.324219 32.066406 60.6875 31.703125 60.6875 31.253906 L 60.6875 29.628906 C 60.6875 29.183594 60.324219 28.816406 59.871094 28.816406 Z M 63.949219 28.816406 C 63.496094 28.816406 63.132812 29.183594 63.132812 29.628906 L 63.132812 31.253906 C 63.132812 31.703125 63.496094 32.066406 63.949219 32.066406 C 64.402344 32.066406 64.765625 31.703125 64.765625 31.253906 L 64.765625 29.628906 C 64.765625 29.183594 64.402344 28.816406 63.949219 28.816406 Z M 60.6875 33.691406 C 60.234375 33.691406 59.871094 34.058594 59.871094 34.503906 C 59.871094 34.953125 60.234375 35.316406 60.6875 35.316406 L 63.949219 35.316406 C 64.402344 35.316406 64.765625 34.953125 64.765625 34.503906 C 64.765625 34.058594 64.402344 33.691406 63.949219 33.691406 Z M 47.5 38.578125 C 47.1875 38.625 46.917969 38.855469 46.839844 39.183594 L 41.941406 58.683594 C 41.832031 59.117188 42.097656 59.558594 42.535156 59.667969 C 42.601562 59.6875 42.667969 59.691406 42.734375 59.691406 C 43.097656 59.691406 43.429688 59.449219 43.523438 59.082031 L 48.417969 39.582031 C 48.53125 39.144531 48.261719 38.703125 47.828125 38.59375 C 47.71875 38.566406 47.605469 38.558594 47.5 38.578125 Z M 37.835938 43.441406 C 37.628906 43.441406 37.417969 43.523438 37.257812 43.679688 L 32.363281 48.554688 C 32.042969 48.875 32.042969 49.386719 32.363281 49.707031 L 37.257812 54.582031 C 37.417969 54.738281 37.625 54.816406 37.835938 54.816406 C 38.046875 54.816406 38.253906 54.738281 38.414062 54.582031 C 38.730469 54.261719 38.730469 53.75 38.414062 53.429688 L 34.09375 49.128906 L 38.414062 44.832031 C 38.730469 44.511719 38.730469 44 38.414062 43.679688 C 38.253906 43.523438 38.042969 43.441406 37.835938 43.441406 Z M 52.527344 43.441406 C 52.316406 43.441406 52.109375 43.523438 51.949219 43.679688 C 51.628906 44 51.628906 44.511719 51.949219 44.832031 L 56.269531 49.128906 L 51.949219 53.429688 C 51.628906 53.75 51.628906 54.261719 51.949219 54.582031 C 52.109375 54.738281 52.316406 54.816406 52.527344 54.816406 C 52.734375 54.816406 52.941406 54.738281 53.101562 54.582031 L 58 49.707031 C 58.316406 49.386719 58.316406 48.875 58 48.554688 L 53.101562 43.679688 C 52.941406 43.523438 52.734375 43.441406 52.527344 43.441406 Z M 52.527344 43.441406 "/>
</g>
</g>
</svg>
