<?xml version="1.0" encoding="UTF-8"?>
<svg xmlns="http://www.w3.org/2000/svg" xmlns:xlink="http://www.w3.org/1999/xlink" width="90pt" height="89.999999pt" viewBox="0 0 90 89.999999" version="1.2">
<defs>
<clipPath id="clip1">
  <path d="M 38 21.578125 L 53 21.578125 L 53 33 L 38 33 Z M 38 21.578125 "/>
</clipPath>
<clipPath id="clip2">
  <path d="M 21.578125 38 L 68.078125 38 L 68.078125 68.078125 L 21.578125 68.078125 Z M 21.578125 38 "/>
</clipPath>
</defs>
<g id="surface1">
<path style=" stroke:none;fill-rule:nonzero;fill:rgb(25.878906%,25.099182%,25.099182%);fill-opacity:1;" d="M 32.933594 30.464844 C 30.03125 31.191406 28.253906 34.164062 28.980469 37.066406 C 29.339844 38.480469 30.210938 39.679688 31.480469 40.40625 C 32.351562 40.914062 33.296875 41.167969 34.238281 41.167969 C 34.671875 41.167969 35.144531 41.09375 35.582031 40.984375 C 36.667969 40.695312 37.648438 40.113281 38.375 39.242188 C 38.589844 38.988281 38.589844 38.589844 38.375 38.300781 C 38.265625 38.191406 38.121094 38.082031 37.972656 38.046875 C 37.902344 38.046875 37.320312 37.902344 36.742188 37.539062 C 37.71875 37.574219 38.808594 37.429688 39.460938 36.703125 C 39.570312 36.597656 39.679688 36.414062 39.679688 36.234375 C 39.75 35.582031 39.679688 34.964844 39.535156 34.347656 C 39.171875 32.933594 38.300781 31.734375 37.03125 31.011719 C 35.796875 30.320312 34.347656 30.101562 32.933594 30.464844 Z M 38.15625 34.746094 C 38.265625 35.109375 38.300781 35.472656 38.265625 35.871094 C 37.539062 36.34375 35.835938 36.050781 35.074219 35.835938 C 34.820312 35.761719 34.527344 35.835938 34.347656 36.050781 C 34.164062 36.234375 34.09375 36.523438 34.203125 36.777344 C 34.636719 37.9375 35.652344 38.664062 36.488281 39.0625 C 36.125 39.316406 35.726562 39.496094 35.253906 39.605469 C 34.238281 39.859375 33.148438 39.714844 32.242188 39.171875 C 31.335938 38.628906 30.683594 37.757812 30.429688 36.742188 C 29.886719 34.601562 31.191406 32.425781 33.332031 31.878906 C 33.65625 31.808594 33.984375 31.773438 34.3125 31.773438 C 36.050781 31.734375 37.683594 32.933594 38.15625 34.746094 Z M 38.15625 34.746094 "/>
<path style=" stroke:none;fill-rule:nonzero;fill:rgb(25.878906%,25.099182%,25.099182%);fill-opacity:1;" d="M 55.3125 41.167969 C 58.324219 41.167969 60.753906 38.734375 60.753906 35.726562 C 60.753906 32.714844 58.324219 30.285156 55.3125 30.285156 C 52.300781 30.285156 49.871094 32.714844 49.871094 35.726562 C 49.871094 38.734375 52.300781 41.167969 55.3125 41.167969 Z M 55.3125 31.734375 C 57.523438 31.734375 59.300781 33.511719 59.300781 35.726562 C 59.300781 37.9375 57.523438 39.714844 55.3125 39.714844 C 53.097656 39.714844 51.320312 37.9375 51.320312 35.726562 C 51.320312 33.511719 53.097656 31.734375 55.3125 31.734375 Z M 55.3125 31.734375 "/>
<g clip-path="url(#clip1)" clip-rule="nonzero">
<path style=" stroke:none;fill-rule:nonzero;fill:rgb(25.878906%,25.099182%,25.099182%);fill-opacity:1;" d="M 39.605469 31.917969 C 39.75 32.027344 39.898438 32.097656 40.078125 32.097656 C 40.222656 32.097656 40.332031 32.0625 40.441406 31.988281 L 44.429688 29.59375 L 50.597656 29.59375 C 51.394531 29.59375 52.046875 28.941406 52.046875 28.144531 L 52.046875 23.066406 C 52.046875 22.269531 51.394531 21.617188 50.597656 21.617188 L 40.441406 21.617188 C 39.644531 21.617188 38.988281 22.269531 38.988281 23.066406 L 38.988281 28.144531 C 38.988281 28.832031 39.460938 29.378906 40.078125 29.558594 L 39.425781 31.082031 C 39.28125 31.371094 39.351562 31.699219 39.605469 31.917969 Z M 40.441406 23.066406 L 50.597656 23.066406 L 50.597656 28.144531 L 44.25 28.144531 C 44.105469 28.144531 43.996094 28.179688 43.886719 28.253906 L 41.636719 29.59375 L 41.820312 29.160156 C 41.929688 28.941406 41.890625 28.6875 41.746094 28.472656 C 41.601562 28.253906 41.382812 28.144531 41.128906 28.144531 L 40.40625 28.144531 L 40.40625 23.066406 Z M 40.441406 23.066406 "/>
</g>
<g clip-path="url(#clip2)" clip-rule="nonzero">
<path style=" stroke:none;fill-rule:nonzero;fill:rgb(25.878906%,25.099182%,25.099182%);fill-opacity:1;" d="M 65.722656 38.628906 C 64.671875 38.628906 63.65625 39.460938 63.472656 40.511719 L 62.09375 44.9375 C 61.769531 43.414062 60.390625 42.253906 58.792969 42.253906 C 56.21875 42.253906 53.753906 43.269531 51.9375 45.121094 C 50.304688 46.789062 49.328125 48.964844 49.144531 51.320312 L 40.40625 51.320312 C 40.222656 49 39.242188 46.789062 37.613281 45.121094 C 35.796875 43.269531 33.332031 42.253906 30.757812 42.253906 C 29.160156 42.253906 27.816406 43.414062 27.457031 44.9375 C 27.457031 44.9375 26.113281 40.550781 26.078125 40.511719 C 25.785156 39.460938 25.0625 38.628906 23.863281 38.628906 C 22.59375 38.628906 21.578125 39.644531 21.578125 40.914062 L 21.578125 62.566406 C 21.578125 62.964844 21.90625 63.292969 22.304688 63.292969 L 25.933594 63.292969 L 25.933594 66.554688 C 25.933594 66.554688 24.480469 66.554688 24.480469 66.554688 C 23.539062 66.554688 23.539062 68.007812 24.480469 68.007812 C 24.480469 68.007812 28.832031 68.007812 28.832031 68.007812 C 29.742188 68.007812 29.777344 66.554688 28.832031 66.554688 L 27.382812 66.554688 L 27.382812 63.292969 C 27.382812 63.292969 31.734375 63.292969 31.734375 63.292969 C 32.933594 63.292969 33.910156 62.3125 33.910156 61.117188 C 33.910156 60.863281 33.875 60.609375 33.765625 60.390625 L 36.742188 60.390625 C 36.742188 60.390625 39.027344 66.847656 39.027344 66.882812 C 39.351562 67.753906 40.695312 67.28125 40.40625 66.410156 L 37.9375 59.410156 C 37.828125 59.121094 37.574219 58.9375 37.25 58.9375 L 28.832031 58.9375 L 28.832031 45.664062 C 28.832031 44.613281 29.703125 43.707031 30.757812 43.707031 C 32.96875 43.707031 35.035156 44.574219 36.597656 46.171875 C 37.972656 47.550781 38.808594 49.398438 38.988281 51.359375 L 36.089844 51.359375 C 35.289062 51.359375 34.636719 52.011719 34.636719 52.808594 L 34.636719 54.984375 C 34.636719 55.785156 35.289062 56.4375 36.089844 56.4375 L 41.890625 56.4375 L 41.890625 66.59375 C 41.890625 67.390625 42.542969 68.042969 43.34375 68.042969 L 45.519531 68.042969 C 46.316406 68.042969 46.96875 67.390625 46.96875 66.59375 L 46.96875 56.398438 L 52.773438 56.398438 C 53.570312 56.398438 54.222656 55.746094 54.222656 54.949219 L 54.222656 52.773438 C 54.222656 51.976562 53.570312 51.320312 52.773438 51.320312 L 50.632812 51.320312 C 50.8125 49.363281 51.648438 47.550781 53.027344 46.171875 C 54.585938 44.574219 56.652344 43.707031 58.867188 43.707031 C 59.882812 43.707031 60.789062 44.613281 60.789062 45.664062 L 60.789062 58.9375 L 52.335938 58.9375 C 52.046875 58.9375 51.757812 59.121094 51.648438 59.410156 C 51.648438 59.410156 49.21875 66.375 49.21875 66.375 C 48.929688 67.246094 50.304688 67.71875 50.597656 66.847656 L 52.882812 60.355469 C 52.882812 60.355469 55.855469 60.355469 55.855469 60.355469 C 55.53125 60.355469 55.820312 61.769531 55.929688 61.949219 C 56.253906 62.710938 57.089844 63.253906 57.921875 63.253906 C 57.921875 63.253906 62.277344 63.253906 62.277344 63.253906 L 62.277344 66.519531 L 60.824219 66.519531 C 60.425781 66.519531 60.101562 66.847656 60.101562 67.246094 C 60.101562 67.644531 60.425781 67.972656 60.824219 67.972656 L 65.179688 67.972656 C 65.578125 67.972656 65.902344 67.644531 65.902344 67.246094 C 65.902344 66.847656 65.578125 66.519531 65.179688 66.519531 L 63.726562 66.519531 L 63.726562 63.253906 L 67.355469 63.253906 C 67.753906 63.253906 68.078125 62.929688 68.078125 62.53125 L 68.078125 40.914062 C 68.007812 39.644531 66.992188 38.628906 65.722656 38.628906 Z M 31.734375 60.390625 C 32.132812 60.390625 32.460938 60.714844 32.460938 61.117188 C 32.460938 61.296875 32.386719 61.476562 32.242188 61.625 C 32.097656 61.769531 31.917969 61.839844 31.734375 61.839844 L 23.03125 61.839844 L 23.03125 40.914062 C 23.03125 40.441406 23.394531 40.078125 23.863281 40.078125 C 24.261719 40.078125 24.625 40.367188 24.699219 40.804688 C 24.699219 40.839844 24.699219 40.875 24.734375 40.914062 L 27.382812 49.582031 L 27.382812 59.664062 C 27.382812 60.0625 27.710938 60.390625 28.109375 60.390625 Z M 52.773438 52.773438 L 52.773438 54.949219 L 46.96875 54.949219 C 46.171875 54.949219 45.519531 55.601562 45.519531 56.398438 L 45.519531 66.554688 L 43.34375 66.554688 L 43.34375 56.398438 C 43.34375 55.601562 42.691406 54.949219 41.890625 54.949219 L 36.089844 54.949219 L 36.089844 52.773438 Z M 66.554688 61.839844 L 57.851562 61.839844 C 57.667969 61.839844 57.488281 61.769531 57.34375 61.625 C 57.199219 61.476562 57.125 61.296875 57.125 61.117188 C 57.125 60.714844 57.453125 60.390625 57.851562 60.390625 L 61.476562 60.390625 C 61.878906 60.390625 62.203125 60.0625 62.203125 59.664062 L 62.203125 49.582031 L 64.886719 40.914062 C 64.886719 40.875 64.925781 40.839844 64.925781 40.804688 C 64.960938 40.621094 65.03125 40.441406 65.214844 40.296875 C 65.359375 40.152344 65.539062 40.078125 65.757812 40.078125 C 66.230469 40.078125 66.59375 40.441406 66.59375 40.914062 L 66.59375 61.839844 Z M 66.554688 61.839844 "/>
</g>
</g>
</svg>
