<?xml version="1.0" encoding="UTF-8"?>
<svg xmlns="http://www.w3.org/2000/svg" xmlns:xlink="http://www.w3.org/1999/xlink" width="30pt" height="30.000001pt" viewBox="0 0 30 30.000001" version="1.2">
<defs>
<clipPath id="clip1">
  <path d="M 0.628906 0.144531 L 29.515625 0.144531 L 29.515625 29 L 0.628906 29 Z M 0.628906 0.144531 "/>
</clipPath>
<clipPath id="clip2">
  <path d="M 4 4 L 29.515625 4 L 29.515625 29 L 4 29 Z M 4 4 "/>
</clipPath>
</defs>
<g id="surface1">
<g clip-path="url(#clip1)" clip-rule="nonzero">
<path style=" stroke:none;fill-rule:nonzero;fill:rgb(22.749329%,35.289001%,59.609985%);fill-opacity:1;" d="M 0.628906 14.359375 C 0.628906 6.507812 7 0.144531 14.855469 0.144531 C 22.710938 0.144531 29.074219 6.507812 29.074219 14.359375 C 29.074219 22.207031 22.703125 28.574219 14.855469 28.574219 C 7 28.574219 0.628906 22.207031 0.628906 14.359375 "/>
</g>
<g clip-path="url(#clip2)" clip-rule="nonzero">
<path style=" stroke:none;fill-rule:nonzero;fill:rgb(20.388794%,32.548523%,52.938843%);fill-opacity:1;" d="M 24.910156 4.332031 C 30.464844 9.878906 30.464844 18.882812 24.910156 24.433594 C 19.355469 29.984375 10.351562 29.984375 4.796875 24.433594 Z M 24.910156 4.332031 "/>
</g>
<path style=" stroke:none;fill-rule:nonzero;fill:rgb(18.03894%,30.198669%,44.709778%);fill-opacity:1;" d="M 28.980469 15.957031 L 18.695312 5.679688 L 13.351562 11.015625 L 13.667969 11.332031 L 10.628906 14.371094 L 13.117188 16.859375 L 12.789062 17.183594 L 15.484375 19.878906 L 12.378906 22.980469 L 17.6875 28.285156 C 23.671875 27.082031 28.292969 22.117188 28.980469 15.957031 "/>
<path style=" stroke:none;fill-rule:nonzero;fill:rgb(100%,100%,100%);fill-opacity:1;" d="M 12.367188 9.078125 L 12.367188 11.464844 L 10.617188 11.464844 L 10.617188 14.375 L 12.367188 14.375 L 12.367188 23.039062 L 15.953125 23.039062 L 15.953125 14.375 L 18.363281 14.375 C 18.363281 14.375 18.585938 12.976562 18.695312 11.453125 C 18.378906 11.453125 15.964844 11.453125 15.964844 11.453125 C 15.964844 11.453125 15.964844 9.753906 15.964844 9.457031 C 15.964844 9.160156 16.355469 8.757812 16.746094 8.757812 L 18.703125 8.757812 C 18.703125 8.363281 18.703125 6.992188 18.703125 5.722656 C 17.691406 5.722656 16.546875 5.722656 16.039062 5.722656 C 12.28125 5.722656 12.367188 8.640625 12.367188 9.078125 "/>
</g>
</svg>
