<?xml version="1.0" encoding="UTF-8"?>
<svg xmlns="http://www.w3.org/2000/svg" xmlns:xlink="http://www.w3.org/1999/xlink" width="30pt" height="30.000001pt" viewBox="0 0 30 30.000001" version="1.2">
<defs>
<clipPath id="clip1">
  <path d="M 0.628906 0.21875 L 29.515625 0.21875 L 29.515625 28.523438 L 0.628906 28.523438 Z M 0.628906 0.21875 "/>
</clipPath>
<clipPath id="clip2">
  <path d="M 4 4 L 29 4 L 29 28.523438 L 4 28.523438 Z M 4 4 "/>
</clipPath>
<clipPath id="clip3">
  <path d="M 7 7 L 29 7 L 29 28.523438 L 7 28.523438 Z M 7 7 "/>
</clipPath>
</defs>
<g id="surface1">
<g clip-path="url(#clip1)" clip-rule="nonzero">
<path style=" stroke:none;fill-rule:nonzero;fill:rgb(32.159424%,49.798584%,63.529968%);fill-opacity:1;" d="M 0.628906 14.40625 C 0.628906 6.570312 6.980469 0.21875 14.816406 0.21875 C 22.648438 0.21875 29.003906 6.570312 29.003906 14.40625 C 29.003906 22.238281 22.648438 28.59375 14.816406 28.59375 C 6.980469 28.59375 0.628906 22.238281 0.628906 14.40625 Z M 0.628906 14.40625 "/>
</g>
<g clip-path="url(#clip2)" clip-rule="nonzero">
<path style=" stroke:none;fill-rule:nonzero;fill:rgb(27.449036%,45.878601%,57.649231%);fill-opacity:1;" d="M 24.847656 4.375 C 30.386719 9.914062 30.386719 18.898438 24.847656 24.433594 C 19.304688 29.976562 10.320312 29.976562 4.785156 24.433594 Z M 24.847656 4.375 "/>
</g>
<g clip-path="url(#clip3)" clip-rule="nonzero">
<path style=" stroke:none;fill-rule:nonzero;fill:rgb(25.489807%,41.958618%,50.979614%);fill-opacity:1;" d="M 28.941406 15.71875 L 21.144531 7.925781 L 20.625 8.441406 L 19.613281 7.429688 L 18.675781 8.367188 L 17.824219 7.515625 L 14.480469 10.859375 L 10.917969 7.296875 L 10.566406 7.644531 L 10.820312 7.898438 L 10.664062 8.050781 L 9.9375 7.324219 L 9.578125 7.6875 L 9.914062 8.023438 L 9.589844 8.347656 L 8.960938 7.71875 L 8.207031 8.476562 L 8.890625 9.160156 L 8.207031 9.847656 L 8.445312 10.085938 L 8.207031 10.328125 L 8.777344 10.898438 L 7.609375 12.054688 L 10.449219 14.890625 L 9.851562 15.484375 L 11.722656 17.355469 L 8.257812 20.820312 L 15.976562 28.539062 C 22.832031 27.984375 28.3125 22.554688 28.941406 15.71875 "/>
</g>
<path style=" stroke:none;fill-rule:nonzero;fill:rgb(100%,100%,100%);fill-opacity:1;" d="M 22.101562 12.488281 C 20.722656 12.488281 19.34375 12.488281 17.96875 12.488281 C 19.578125 15.148438 17.734375 18.648438 14.398438 18.320312 C 12.363281 18.121094 10.5 15.933594 11.320312 13.445312 C 11.375 13.285156 11.480469 13.113281 11.566406 12.945312 C 11.648438 12.785156 11.785156 12.605469 11.746094 12.488281 C 10.390625 12.488281 7.644531 12.488281 7.644531 12.488281 L 7.644531 19.3125 C 7.78125 20.644531 8.835938 21.695312 10.191406 21.820312 L 19.589844 21.820312 C 20.953125 21.683594 21.964844 20.550781 22.101562 19.34375 C 22.101562 19.34375 22.101562 13.671875 22.101562 12.488281 "/>
<path style=" stroke:none;fill-rule:nonzero;fill:rgb(100%,100%,100%);fill-opacity:1;" d="M 14.5 11.820312 C 13.945312 11.890625 13.648438 12.007812 13.371094 12.175781 C 12.734375 12.558594 12.132812 13.265625 12.027344 14.222656 C 11.808594 16.148438 13.222656 17.476562 14.851562 17.476562 C 16.148438 17.476562 17.726562 16.550781 17.714844 14.609375 C 17.703125 12.847656 16.296875 11.601562 14.5 11.820312 M 16.941406 15.175781 C 16.707031 16.15625 15.621094 16.890625 14.507812 16.730469 C 13.4375 16.582031 12.289062 15.25 12.917969 13.765625 C 13.152344 13.214844 13.671875 12.605469 14.753906 12.527344 C 16.078125 12.433594 17.320312 13.621094 16.941406 15.175781 "/>
<path style=" stroke:none;fill-rule:nonzero;fill:rgb(100%,100%,100%);fill-opacity:1;" d="M 21.289062 8.109375 C 20.902344 7.71875 20.261719 7.359375 19.554688 7.296875 L 11.5 7.296875 L 11.5 10.972656 L 10.898438 10.972656 L 10.898438 7.296875 L 10.527344 7.296875 L 10.527344 10.972656 L 9.925781 10.972656 L 9.925781 7.332031 C 9.796875 7.355469 9.664062 7.394531 9.539062 7.433594 L 9.539062 10.972656 L 8.9375 10.972656 L 8.9375 7.71875 C 8.75 7.839844 8.578125 7.972656 8.441406 8.109375 C 7.640625 8.910156 7.578125 10.28125 7.628906 12.03125 L 12.117188 12.03125 C 12.300781 11.992188 12.515625 11.761719 12.683594 11.644531 C 13.289062 11.195312 14.066406 10.957031 14.855469 10.945312 L 14.878906 10.945312 C 15.667969 10.949219 16.445312 11.195312 17.050781 11.644531 C 17.21875 11.761719 17.433594 11.992188 17.617188 12.03125 L 22.105469 12.03125 C 22.125 10.265625 22.089844 8.902344 21.289062 8.109375 M 20.671875 10.492188 C 20.671875 10.699219 20.507812 10.863281 20.300781 10.863281 L 18.746094 10.863281 C 18.539062 10.863281 18.371094 10.699219 18.371094 10.492188 L 18.371094 8.9375 C 18.371094 8.730469 18.539062 8.566406 18.746094 8.566406 L 20.300781 8.566406 C 20.507812 8.566406 20.671875 8.730469 20.671875 8.9375 Z M 20.671875 10.492188 "/>
</g>
</svg>
