<?xml version="1.0" encoding="UTF-8"?>
<svg xmlns="http://www.w3.org/2000/svg" xmlns:xlink="http://www.w3.org/1999/xlink" width="30pt" height="30.000001pt" viewBox="0 0 30 30.000001" version="1.2">
<defs>
<clipPath id="clip1">
  <path d="M 0.632812 0.152344 L 29 0.152344 L 29 29 L 0.632812 29 Z M 0.632812 0.152344 "/>
</clipPath>
</defs>
<g id="surface1">
<g clip-path="url(#clip1)" clip-rule="nonzero">
<path style=" stroke:none;fill-rule:nonzero;fill:rgb(29.019165%,52.549744%,77.249146%);fill-opacity:1;" d="M 0.632812 14.285156 C 0.632812 6.480469 6.964844 0.152344 14.769531 0.152344 C 22.574219 0.152344 28.902344 6.480469 28.902344 14.285156 C 28.902344 22.089844 22.574219 28.417969 14.769531 28.417969 C 6.964844 28.417969 0.632812 22.089844 0.632812 14.285156 Z M 0.632812 14.285156 "/>
</g>
<path style=" stroke:none;fill-rule:nonzero;fill:rgb(23.919678%,50.19989%,69.799805%);fill-opacity:1;" d="M 24.761719 4.292969 C 30.28125 9.8125 30.28125 18.761719 24.761719 24.277344 C 19.238281 29.796875 10.289062 29.796875 4.777344 24.277344 Z M 24.761719 4.292969 "/>
<path style=" stroke:none;fill-rule:nonzero;fill:rgb(29.019165%,52.549744%,77.249146%);fill-opacity:1;" d="M 28.230469 18.597656 C 28.28125 18.4375 28.324219 18.273438 28.371094 18.105469 C 28.324219 18.273438 28.28125 18.4375 28.230469 18.597656 "/>
<path style=" stroke:none;fill-rule:nonzero;fill:rgb(21.569824%,48.629761%,64.709473%);fill-opacity:1;" d="M 28.371094 18.105469 L 20.714844 10.449219 L 18.972656 12.195312 L 17.765625 10.980469 L 16.757812 11.988281 L 10.835938 6.070312 L 10.472656 5.925781 L 8.199219 8.199219 L 10.941406 10.941406 L 8.257812 13.625 L 10.878906 16.242188 L 8.011719 19.109375 L 17.125 28.210938 C 22.371094 27.328125 26.640625 23.5625 28.230469 18.589844 C 28.28125 18.4375 28.324219 18.273438 28.371094 18.105469 "/>
<path style=" stroke:none;fill-rule:nonzero;fill:rgb(100%,100%,100%);fill-opacity:1;" d="M 22.019531 13.898438 L 22.019531 19.136719 L 18.984375 19.136719 L 18.984375 14.25 C 18.984375 13.019531 18.542969 12.183594 17.445312 12.183594 C 16.609375 12.183594 16.105469 12.746094 15.882812 13.292969 C 15.804688 13.488281 15.78125 13.761719 15.78125 14.035156 L 15.78125 19.136719 L 12.746094 19.136719 C 12.746094 19.136719 12.785156 10.855469 12.746094 10 L 15.78125 10 L 15.78125 11.292969 C 15.777344 11.304688 15.769531 11.316406 15.765625 11.320312 L 15.78125 11.320312 L 15.78125 11.292969 C 16.1875 10.671875 16.902344 9.785156 18.523438 9.785156 C 20.523438 9.785156 22.019531 11.089844 22.019531 13.898438 M 9.566406 5.589844 C 8.53125 5.589844 7.847656 6.273438 7.847656 7.167969 C 7.847656 8.046875 8.507812 8.746094 9.527344 8.746094 L 9.550781 8.746094 C 10.609375 8.746094 11.269531 8.046875 11.269531 7.167969 C 11.242188 6.273438 10.605469 5.589844 9.566406 5.589844 M 8.023438 19.136719 L 11.066406 19.136719 L 11.066406 10 L 8.027344 10 L 8.027344 19.136719 Z M 8.023438 19.136719 "/>
</g>
</svg>
