<?xml version="1.0" encoding="UTF-8"?>
<svg xmlns="http://www.w3.org/2000/svg" xmlns:xlink="http://www.w3.org/1999/xlink" width="90pt" height="89.999999pt" viewBox="0 0 90 89.999999" version="1.2">
<defs>
<clipPath id="clip1">
  <path d="M 22.703125 28 L 66.953125 28 L 66.953125 66.953125 L 22.703125 66.953125 Z M 22.703125 28 "/>
</clipPath>
<clipPath id="clip2">
  <path d="M 27 22.703125 L 63 22.703125 L 63 53 L 27 53 Z M 27 22.703125 "/>
</clipPath>
</defs>
<g id="surface1">
<g clip-path="url(#clip1)" clip-rule="nonzero">
<path style=" stroke:none;fill-rule:nonzero;fill:rgb(25.878906%,25.099182%,25.099182%);fill-opacity:1;" d="M 65.480469 56.628906 C 65.480469 57.441406 64.816406 58.105469 64.003906 58.105469 L 25.65625 58.105469 C 24.84375 58.105469 24.179688 57.441406 24.179688 56.628906 L 24.179688 55.15625 L 65.480469 55.15625 Z M 49.738281 65.480469 L 39.921875 65.480469 L 41.6875 59.578125 L 47.96875 59.578125 Z M 64.003906 28.605469 L 64.003906 30.078125 C 64.816406 30.078125 65.480469 30.742188 65.480469 31.554688 L 65.480469 53.679688 L 24.179688 53.679688 L 24.179688 31.554688 C 24.179688 30.742188 24.84375 30.078125 25.65625 30.078125 L 25.65625 28.605469 C 24.027344 28.605469 22.703125 29.925781 22.703125 31.554688 L 22.703125 56.628906 C 22.703125 58.257812 24.027344 59.578125 25.65625 59.578125 L 40.152344 59.578125 L 38.382812 65.480469 L 36.71875 65.480469 L 36.71875 66.953125 L 52.941406 66.953125 L 52.941406 65.480469 L 51.277344 65.480469 L 49.507812 59.578125 L 64.003906 59.578125 C 65.632812 59.578125 66.953125 58.257812 66.953125 56.628906 L 66.953125 31.554688 C 66.953125 29.925781 65.632812 28.605469 64.003906 28.605469 "/>
</g>
<g clip-path="url(#clip2)" clip-rule="nonzero">
<path style=" stroke:none;fill-rule:nonzero;fill:rgb(25.878906%,25.099182%,25.099182%);fill-opacity:1;" d="M 27.128906 25.65625 L 27.128906 52.203125 L 28.605469 52.203125 L 28.605469 25.65625 C 28.605469 24.84375 29.265625 24.179688 30.078125 24.179688 L 59.578125 24.179688 C 60.390625 24.179688 61.054688 24.84375 61.054688 25.65625 L 61.054688 52.203125 L 62.53125 52.203125 L 62.53125 25.65625 C 62.53125 24.027344 61.207031 22.703125 59.578125 22.703125 L 30.078125 22.703125 C 28.453125 22.703125 27.128906 24.027344 27.128906 25.65625 "/>
</g>
<path style=" stroke:none;fill-rule:nonzero;fill:rgb(25.878906%,25.099182%,25.099182%);fill-opacity:1;" d="M 30.078125 25.65625 L 30.078125 27.128906 L 31.554688 27.128906 L 31.554688 25.65625 L 30.078125 25.65625 "/>
<path style=" stroke:none;fill-rule:nonzero;fill:rgb(25.878906%,25.099182%,25.099182%);fill-opacity:1;" d="M 33.03125 25.65625 L 33.03125 27.128906 L 34.503906 27.128906 L 34.503906 25.65625 L 33.03125 25.65625 "/>
<path style=" stroke:none;fill-rule:nonzero;fill:rgb(25.878906%,25.099182%,25.099182%);fill-opacity:1;" d="M 35.980469 25.65625 L 35.980469 27.128906 L 37.453125 27.128906 L 37.453125 25.65625 L 35.980469 25.65625 "/>
<path style=" stroke:none;fill-rule:nonzero;fill:rgb(25.878906%,25.099182%,25.099182%);fill-opacity:1;" d="M 59.578125 28.605469 L 30.078125 28.605469 L 30.078125 30.078125 L 59.578125 30.078125 L 59.578125 28.605469 "/>
<path style=" stroke:none;fill-rule:nonzero;fill:rgb(25.878906%,25.099182%,25.099182%);fill-opacity:1;" d="M 31.554688 37.453125 L 31.554688 33.03125 L 37.453125 33.03125 L 37.453125 37.453125 Z M 38.929688 33.03125 C 38.929688 32.21875 38.265625 31.554688 37.453125 31.554688 L 31.554688 31.554688 C 30.742188 31.554688 30.078125 32.21875 30.078125 33.03125 L 30.078125 37.453125 C 30.078125 38.265625 30.742188 38.929688 31.554688 38.929688 L 37.453125 38.929688 C 38.265625 38.929688 38.929688 38.265625 38.929688 37.453125 L 38.929688 33.03125 "/>
<path style=" stroke:none;fill-rule:nonzero;fill:rgb(25.878906%,25.099182%,25.099182%);fill-opacity:1;" d="M 41.878906 37.453125 L 41.878906 33.03125 L 47.78125 33.03125 L 47.78125 37.453125 Z M 49.253906 33.03125 C 49.253906 32.21875 48.59375 31.554688 47.78125 31.554688 L 41.878906 31.554688 C 41.066406 31.554688 40.40625 32.21875 40.40625 33.03125 L 40.40625 37.453125 C 40.40625 38.265625 41.066406 38.929688 41.878906 38.929688 L 47.78125 38.929688 C 48.59375 38.929688 49.253906 38.265625 49.253906 37.453125 L 49.253906 33.03125 "/>
<path style=" stroke:none;fill-rule:nonzero;fill:rgb(25.878906%,25.099182%,25.099182%);fill-opacity:1;" d="M 52.203125 37.453125 L 52.203125 33.03125 L 58.105469 33.03125 L 58.105469 37.453125 Z M 59.578125 33.03125 C 59.578125 32.21875 58.917969 31.554688 58.105469 31.554688 L 52.203125 31.554688 C 51.390625 31.554688 50.730469 32.21875 50.730469 33.03125 L 50.730469 37.453125 C 50.730469 38.265625 51.390625 38.929688 52.203125 38.929688 L 58.105469 38.929688 C 58.917969 38.929688 59.578125 38.265625 59.578125 37.453125 L 59.578125 33.03125 "/>
<path style=" stroke:none;fill-rule:nonzero;fill:rgb(25.878906%,25.099182%,25.099182%);fill-opacity:1;" d="M 31.554688 46.304688 L 31.554688 41.878906 L 37.453125 41.878906 L 37.453125 46.304688 Z M 38.929688 41.878906 C 38.929688 41.066406 38.265625 40.40625 37.453125 40.40625 L 31.554688 40.40625 C 30.742188 40.40625 30.078125 41.066406 30.078125 41.878906 L 30.078125 46.304688 C 30.078125 47.117188 30.742188 47.78125 31.554688 47.78125 L 37.453125 47.78125 C 38.265625 47.78125 38.929688 47.117188 38.929688 46.304688 L 38.929688 41.878906 "/>
<path style=" stroke:none;fill-rule:nonzero;fill:rgb(25.878906%,25.099182%,25.099182%);fill-opacity:1;" d="M 41.878906 46.304688 L 41.878906 41.878906 L 47.78125 41.878906 L 47.78125 46.304688 Z M 49.253906 41.878906 C 49.253906 41.066406 48.59375 40.40625 47.78125 40.40625 L 41.878906 40.40625 C 41.066406 40.40625 40.40625 41.066406 40.40625 41.878906 L 40.40625 46.304688 C 40.40625 47.117188 41.066406 47.78125 41.878906 47.78125 L 47.78125 47.78125 C 48.59375 47.78125 49.253906 47.117188 49.253906 46.304688 L 49.253906 41.878906 "/>
<path style=" stroke:none;fill-rule:nonzero;fill:rgb(25.878906%,25.099182%,25.099182%);fill-opacity:1;" d="M 52.203125 46.304688 L 52.203125 41.878906 L 58.105469 41.878906 L 58.105469 46.304688 Z M 59.578125 41.878906 C 59.578125 41.066406 58.917969 40.40625 58.105469 40.40625 L 52.203125 40.40625 C 51.390625 40.40625 50.730469 41.066406 50.730469 41.878906 L 50.730469 46.304688 C 50.730469 47.117188 51.390625 47.78125 52.203125 47.78125 L 58.105469 47.78125 C 58.917969 47.78125 59.578125 47.117188 59.578125 46.304688 L 59.578125 41.878906 "/>
<path style=" stroke:none;fill-rule:nonzero;fill:rgb(25.878906%,25.099182%,25.099182%);fill-opacity:1;" d="M 38.929688 52.203125 L 38.929688 50.730469 C 38.929688 49.917969 38.265625 49.253906 37.453125 49.253906 L 31.554688 49.253906 C 30.742188 49.253906 30.078125 49.917969 30.078125 50.730469 L 30.078125 52.203125 L 31.554688 52.203125 L 31.554688 50.730469 L 37.453125 50.730469 L 37.453125 52.203125 L 38.929688 52.203125 "/>
<path style=" stroke:none;fill-rule:nonzero;fill:rgb(25.878906%,25.099182%,25.099182%);fill-opacity:1;" d="M 49.253906 52.203125 L 49.253906 50.730469 C 49.253906 49.917969 48.59375 49.253906 47.78125 49.253906 L 41.878906 49.253906 C 41.066406 49.253906 40.40625 49.917969 40.40625 50.730469 L 40.40625 52.203125 L 41.878906 52.203125 L 41.878906 50.730469 L 47.78125 50.730469 L 47.78125 52.203125 L 49.253906 52.203125 "/>
<path style=" stroke:none;fill-rule:nonzero;fill:rgb(25.878906%,25.099182%,25.099182%);fill-opacity:1;" d="M 59.578125 52.203125 L 59.578125 50.730469 C 59.578125 49.917969 58.917969 49.253906 58.105469 49.253906 L 52.203125 49.253906 C 51.390625 49.253906 50.730469 49.917969 50.730469 50.730469 L 50.730469 52.203125 L 52.203125 52.203125 L 52.203125 50.730469 L 58.105469 50.730469 L 58.105469 52.203125 L 59.578125 52.203125 "/>
</g>
</svg>
