<?xml version="1.0" encoding="UTF-8"?>
<svg xmlns="http://www.w3.org/2000/svg" xmlns:xlink="http://www.w3.org/1999/xlink" width="90pt" height="89.999999pt" viewBox="0 0 90 89.999999" version="1.2">
<defs>
<clipPath id="clip1">
  <path d="M 22.601562 22.601562 L 67.601562 22.601562 L 67.601562 61 L 22.601562 61 Z M 22.601562 22.601562 "/>
</clipPath>
<clipPath id="clip2">
  <path d="M 59 52 L 67.601562 52 L 67.601562 67.601562 L 59 67.601562 Z M 59 52 "/>
</clipPath>
<clipPath id="clip3">
  <path d="M 22.601562 52 L 39 52 L 39 67.601562 L 22.601562 67.601562 Z M 22.601562 52 "/>
</clipPath>
</defs>
<g id="surface1">
<path style=" stroke:none;fill-rule:nonzero;fill:rgb(24.308777%,75.689697%,83.529663%);fill-opacity:1;" d="M 51.148438 53.890625 L 53.257812 53.890625 C 53.890625 53.46875 54.488281 53.011719 55.050781 52.484375 L 53.398438 52.484375 C 52.695312 53.011719 51.957031 53.503906 51.148438 53.890625 Z M 51.148438 53.890625 "/>
<path style=" stroke:none;fill-rule:nonzero;fill:rgb(24.308777%,75.689697%,83.529663%);fill-opacity:1;" d="M 45.101562 29.28125 C 38.316406 29.28125 32.796875 34.800781 32.796875 41.585938 C 32.796875 48.371094 38.316406 53.890625 45.101562 53.890625 C 51.886719 53.890625 57.40625 48.371094 57.40625 41.585938 C 57.40625 34.800781 51.886719 29.28125 45.101562 29.28125 Z M 45.101562 52.484375 C 39.089844 52.484375 34.203125 47.597656 34.203125 41.585938 C 34.203125 35.574219 39.089844 30.6875 45.101562 30.6875 C 51.113281 30.6875 56 35.574219 56 41.585938 C 56 47.597656 51.113281 52.484375 45.101562 52.484375 Z M 45.101562 52.484375 "/>
<g clip-path="url(#clip1)" clip-rule="nonzero">
<path style=" stroke:none;fill-rule:nonzero;fill:rgb(24.308777%,75.689697%,83.529663%);fill-opacity:1;" d="M 63.699219 37.121094 C 63.628906 36.734375 63.488281 36.417969 63.277344 36.101562 C 60.921875 28.296875 53.644531 22.601562 45.101562 22.601562 C 36.558594 22.601562 29.316406 28.296875 26.925781 36.066406 C 26.714844 36.382812 26.574219 36.734375 26.503906 37.085938 C 24.253906 37.71875 22.601562 39.757812 22.601562 42.21875 C 22.601562 44.679688 24.253906 46.71875 26.503906 47.316406 C 26.75 48.617188 27.910156 49.601562 29.28125 49.601562 C 30.054688 49.601562 30.6875 48.96875 30.6875 48.195312 L 30.6875 36.242188 C 30.6875 35.46875 30.054688 34.835938 29.28125 34.835938 C 29.140625 34.835938 29 34.835938 28.859375 34.871094 C 31.53125 28.507812 37.789062 24.007812 45.101562 24.007812 C 52.414062 24.007812 58.707031 28.507812 61.34375 34.835938 C 61.203125 34.800781 61.0625 34.800781 60.921875 34.800781 C 60.148438 34.800781 59.515625 35.433594 59.515625 36.207031 L 59.515625 48.160156 C 59.515625 48.335938 59.550781 48.511719 59.621094 48.6875 C 57.300781 53.398438 52.765625 56.808594 47.386719 57.582031 C 47.035156 56.667969 46.15625 56 45.101562 56 C 43.730469 56 42.640625 57.089844 42.640625 58.460938 C 42.640625 59.832031 43.730469 60.921875 45.101562 60.921875 C 46.261719 60.921875 47.246094 60.113281 47.492188 58.988281 C 53.292969 58.179688 58.179688 54.558594 60.746094 49.566406 C 60.816406 49.566406 60.851562 49.566406 60.921875 49.566406 C 62.292969 49.566406 63.453125 48.582031 63.699219 47.28125 C 65.949219 46.683594 67.601562 44.644531 67.601562 42.183594 C 67.601562 39.722656 65.949219 37.71875 63.699219 37.121094 Z M 26.46875 45.804688 C 25.027344 45.242188 24.007812 43.835938 24.007812 42.21875 C 24.007812 40.601562 25.027344 39.195312 26.46875 38.632812 Z M 29.28125 36.242188 L 29.28125 48.195312 C 28.507812 48.195312 27.875 47.5625 27.875 46.789062 L 27.875 37.648438 C 27.875 36.839844 28.507812 36.242188 29.28125 36.242188 Z M 45.101562 59.515625 C 44.503906 59.515625 44.046875 59.058594 44.046875 58.460938 C 44.046875 57.863281 44.503906 57.40625 45.101562 57.40625 C 45.699219 57.40625 46.15625 57.863281 46.15625 58.460938 C 46.15625 59.058594 45.699219 59.515625 45.101562 59.515625 Z M 62.328125 46.789062 C 62.328125 47.5625 61.695312 48.195312 60.921875 48.195312 L 60.921875 36.242188 C 61.34375 36.242188 61.730469 36.417969 61.976562 36.734375 C 62.1875 36.980469 62.328125 37.296875 62.328125 37.648438 Z M 63.734375 45.804688 L 63.734375 38.597656 C 63.769531 38.597656 63.804688 38.632812 63.875 38.632812 C 65.246094 39.230469 66.195312 40.601562 66.195312 42.183594 C 66.195312 43.835938 65.175781 45.242188 63.734375 45.804688 Z M 63.734375 45.804688 "/>
</g>
<g clip-path="url(#clip2)" clip-rule="nonzero">
<path style=" stroke:none;fill-rule:nonzero;fill:rgb(24.308777%,75.689697%,83.529663%);fill-opacity:1;" d="M 60.359375 52.871094 C 60.042969 53.328125 59.691406 53.75 59.304688 54.171875 C 63.101562 54.347656 66.160156 57.371094 66.160156 61.0625 L 66.160156 66.898438 C 66.160156 67.285156 66.476562 67.601562 66.863281 67.601562 C 67.25 67.601562 67.566406 67.285156 67.566406 66.898438 L 67.566406 61.027344 C 67.601562 56.914062 64.472656 53.503906 60.359375 52.871094 Z M 60.359375 52.871094 "/>
</g>
<g clip-path="url(#clip3)" clip-rule="nonzero">
<path style=" stroke:none;fill-rule:nonzero;fill:rgb(24.308777%,75.689697%,83.529663%);fill-opacity:1;" d="M 31.144531 52.132812 C 26.433594 52.132812 22.601562 56 22.601562 60.78125 L 22.601562 66.898438 C 22.601562 67.285156 22.917969 67.601562 23.304688 67.601562 C 23.691406 67.601562 24.007812 67.285156 24.007812 66.898438 L 24.007812 60.78125 C 24.007812 56.808594 27.207031 53.574219 31.144531 53.574219 L 38.421875 53.574219 C 37.683594 53.152344 36.980469 52.660156 36.3125 52.132812 Z M 31.144531 52.132812 "/>
</g>
</g>
</svg>
