<?xml version="1.0" encoding="utf-8"?>
<!-- Generator: Adobe Illustrator 19.0.0, SVG Export Plug-In . SVG Version: 6.00 Build 0)  -->
<svg version="1.1" id="Capa_1" xmlns="http://www.w3.org/2000/svg" xmlns:xlink="http://www.w3.org/1999/xlink" x="0px" y="0px"
	 viewBox="0 0 1400 980" style="enable-background:new 0 0 1400 980;" xml:space="preserve">
<style type="text/css">
	.st0{fill:#00AEEF;}
	.st1{opacity:0.5;}
	.st2{fill:#FFFFFF;}
	.st3{opacity:5.000000e-002;}
	.st4{fill:#231F20;}
	.st5{opacity:0.2;}
	.st6{opacity:0.6;}
	.st7{opacity:0.6;fill:#FFFFFF;}
	.st8{opacity:0.3;}
	.st9{opacity:0.4;}
	.st10{fill:#D3D3D3;}
	.st11{opacity:0.1;}
	.st12{fill:#161514;}
	.st13{fill:#28364E;}
	.st14{fill:#344A61;}
	.st15{fill:#7388A8;}
	.st16{fill:#EBEDF1;}
	.st17{fill:#4D5059;}
	.st18{fill:#333333;}
	.st19{fill:#D4D4D4;}
	.st20{fill:#9C9C9C;}
	.st21{fill:#D8D8D8;}
	.st22{fill:#F73434;}
	.st23{clip-path:url(#XMLID_64_);}
	.st24{fill:#FBF4E9;}
	.st25{fill:#FFC080;}
	.st26{fill:#FFDDB5;}
	.st27{opacity:0.1;fill:#161514;}
</style>
<rect id="XMLID_130_" class="st0" width="1400" height="980"/>
<g id="XMLID_131_" class="st1">
	<g id="XMLID_136_">
		<g id="XMLID_137_">
			<path id="XMLID_368_" class="st2" d="M1253,90.9V77.6l-7.1-0.9c-0.6-1.9-1.3-3.8-2.3-5.5l4.4-5.6l-9.4-9.4l-5.6,4.4
				c-1.7-0.9-3.5-1.7-5.5-2.3l-0.9-7.1h-13.3l-0.9,7.1c-1.9,0.6-3.8,1.3-5.5,2.3l-5.6-4.4l-9.4,9.4l4.4,5.6
				c-0.9,1.7-1.7,3.5-2.3,5.5l-7.1,0.9v13.3l7.1,0.9c0.6,1.9,1.3,3.8,2.3,5.5l-4.4,5.6l9.4,9.4l5.6-4.4c1.7,0.9,3.5,1.7,5.5,2.3
				l0.9,7.1h13.3l0.9-7.1c1.9-0.6,3.8-1.3,5.5-2.3l5.6,4.4l9.4-9.4l-4.4-5.6c0.9-1.7,1.7-3.5,2.3-5.5L1253,90.9z M1220,100.3
				c-8.9,0-16-7.2-16-16c0-8.9,7.2-16,16-16s16,7.2,16,16C1236.1,93.1,1228.9,100.3,1220,100.3z"/>
		</g>
	</g>
	<g id="XMLID_132_">
		<g id="XMLID_133_">
			<path id="XMLID_363_" class="st2" d="M1220,98.8c-8,0-14.6-6.5-14.6-14.6s6.5-14.6,14.6-14.6s14.6,6.5,14.6,14.6
				S1228.1,98.8,1220,98.8z M1220,72.1c-6.7,0-12.1,5.4-12.1,12.1s5.4,12.1,12.1,12.1s12.1-5.4,12.1-12.1S1226.7,72.1,1220,72.1z"/>
		</g>
	</g>
</g>
<g id="XMLID_2_" class="st3">
	<path id="XMLID_3_" class="st4" d="M548.4,119.5H462c-13.3,0-24.2-10.8-24.2-24.2s10.8-24.2,24.2-24.2c1.1,0,2.3,0.1,3.4,0.2
		c8.4-13.9,23.4-22.5,39.7-22.5s31.4,8.6,39.7,22.5c1.1-0.2,2.3-0.2,3.4-0.2c13.3,0,24.2,10.8,24.2,24.2S561.7,119.5,548.4,119.5z
		 M462,77.7c-9.8,0-17.7,8-17.7,17.7c0,9.8,8,17.7,17.7,17.7h86.4c9.8,0,17.7-8,17.7-17.7c0-9.8-8-17.7-17.7-17.7
		c-1.4,0-2.9,0.2-4.3,0.5c-1.4,0.4-2.9-0.3-3.6-1.6c-7-13.1-20.5-21.2-35.3-21.2c-14.8,0-28.3,8.1-35.3,21.2c-0.7,1.3-2.2,2-3.6,1.6
		C464.9,77.8,463.5,77.7,462,77.7z"/>
</g>
<g id="XMLID_143_" class="st1">
	<circle id="XMLID_347_" class="st2" cx="816.8" cy="57" r="16"/>
</g>
<g id="XMLID_164_" class="st5">
	<path id="XMLID_173_" class="st2" d="M1103.6,86c-2.8,0-5-2.2-5-5V57c0-2.8,2.2-5,5-5s5,2.2,5,5v24
		C1108.6,83.8,1106.4,86,1103.6,86z"/>
</g>
<g id="XMLID_165_" class="st5">
	<path id="XMLID_171_" class="st2" d="M1367,152.2c-2.8,0-5-2.2-5-5V73c0-2.8,2.2-5,5-5s5,2.2,5,5v74.2
		C1372,150,1369.8,152.2,1367,152.2z"/>
</g>
<g id="XMLID_35_" class="st6">
	<path id="XMLID_96_" class="st2" d="M379.5,123c-9,0-16.4,7.4-16.4,16.4c0,9.1,7.4,16.4,16.4,16.4c9.1,0,16.4-7.4,16.4-16.4
		C396,130.3,388.6,123,379.5,123z M386,142h-3.8v3.8c0,1.5-1.2,2.6-2.6,2.6c-1.5,0-2.6-1.2-2.6-2.6V142h-3.8c-1.5,0-2.6-1.2-2.6-2.6
		s1.2-2.6,2.6-2.6h3.8v-3.8c0-1.5,1.2-2.6,2.6-2.6c1.5,0,2.6,1.2,2.6,2.6v3.8h3.8c1.5,0,2.6,1.2,2.6,2.6S387.4,142,386,142z"/>
	<path id="XMLID_36_" class="st2" d="M430.6,148.6c-9.1,0-16.4,7.4-16.4,16.4s7.4,16.4,16.4,16.4c9.1,0,16.4-7.4,16.4-16.4
		S439.6,148.6,430.6,148.6z M430.6,174.3c-1.3,0-2.3-1-2.3-2.3c0-1.3,1-2.3,2.3-2.3c1.3,0,2.3,1,2.3,2.3
		C432.9,173.3,431.9,174.3,430.6,174.3z M430.6,167.4c-1.3,0-2.3-1-2.3-2.3c0-1.3,1-2.3,2.3-2.3c1.3,0,2.3,1,2.3,2.3
		C432.9,166.3,431.9,167.4,430.6,167.4z M430.6,160.4c-1.3,0-2.3-1-2.3-2.3c0-1.3,1-2.3,2.3-2.3c1.3,0,2.3,1,2.3,2.3
		C432.9,159.4,431.9,160.4,430.6,160.4z"/>
</g>
<g id="XMLID_26_" class="st3">
	<g id="XMLID_29_">
		<g id="XMLID_44_">
			<path id="XMLID_379_" class="st4" d="M858,838.1v-27.4l-14.6-1.8c-1.1-4-2.7-7.7-4.7-11.3l9.1-11.6l-19.4-19.4l-11.6,9.1
				c-3.5-1.9-7.3-3.5-11.3-4.7l-1.8-14.6h-27.4l-1.8,14.6c-4,1.1-7.7,2.7-11.3,4.7l-11.6-9.1L732.4,786l9.1,11.6
				c-1.9,3.5-3.5,7.3-4.7,11.3l-14.6,1.8v27.4l14.6,1.8c1.1,4,2.7,7.7,4.7,11.3l-9.1,11.6l19.4,19.4l11.6-9.1
				c3.5,1.9,7.3,3.5,11.3,4.7l1.8,14.6h27.4l1.8-14.6c4-1.1,7.7-2.7,11.3-4.7l11.6,9.1l19.4-19.4l-9.1-11.6
				c1.9-3.5,3.5-7.3,4.7-11.3L858,838.1z M790.1,857.3c-18.2,0-33-14.8-33-33c0-18.2,14.8-33,33-33c18.2,0,33,14.8,33,33
				C823.1,842.6,808.4,857.3,790.1,857.3z"/>
		</g>
	</g>
	<g id="XMLID_33_">
		<g id="XMLID_24_">
			<path id="XMLID_374_" class="st4" d="M790.1,854.3c-16.5,0-30-13.5-30-30c0-16.5,13.5-30,30-30c16.5,0,30,13.5,30,30
				C820.1,840.9,806.7,854.3,790.1,854.3z M790.1,799.4c-13.8,0-25,11.2-25,25c0,13.8,11.2,25,25,25c13.8,0,25-11.2,25-25
				C815.1,810.6,803.9,799.4,790.1,799.4z"/>
		</g>
	</g>
</g>
<g id="XMLID_31_" class="st3">
	<path id="XMLID_156_" class="st4" d="M973.3,250.3H838.7c-20.8,0-37.7-16.9-37.7-37.7s16.9-37.7,37.7-37.7c1.8,0,3.6,0.1,5.3,0.4
		c13.1-21.7,36.5-35,62-35c25.5,0,48.9,13.3,62,35c1.8-0.3,3.6-0.4,5.3-0.4c20.8,0,37.7,16.9,37.7,37.7S994.1,250.3,973.3,250.3z
		 M838.7,185c-15.3,0-27.7,12.4-27.7,27.7c0,15.3,12.4,27.7,27.7,27.7h134.7c15.3,0,27.7-12.4,27.7-27.7c0-15.3-12.4-27.7-27.7-27.7
		c-2.3,0-4.5,0.3-6.7,0.8c-2.2,0.6-4.5-0.5-5.6-2.5c-10.9-20.4-32-33-55-33c-23,0-44.1,12.6-55,33c-1.1,2-3.4,3-5.6,2.5
		C843.2,185.3,840.9,185,838.7,185z"/>
</g>
<g id="XMLID_147_" class="st3">
	<path id="XMLID_153_" class="st4" d="M1355.7,763H1221c-20.8,0-37.7-16.9-37.7-37.7c0-20.8,16.9-37.7,37.7-37.7
		c1.8,0,3.6,0.1,5.3,0.4c13.1-21.7,36.5-35,62-35c25.5,0,48.9,13.3,62,35c1.8-0.3,3.6-0.4,5.3-0.4c20.8,0,37.7,16.9,37.7,37.7
		C1393.4,746.1,1376.5,763,1355.7,763z M1221,697.7c-15.3,0-27.7,12.4-27.7,27.7c0,15.3,12.4,27.7,27.7,27.7h134.7
		c15.3,0,27.7-12.4,27.7-27.7c0-15.3-12.4-27.7-27.7-27.7c-2.3,0-4.5,0.3-6.7,0.8c-2.2,0.6-4.5-0.5-5.6-2.5c-10.9-20.4-32-33-55-33
		s-44.1,12.6-55,33c-1.1,2-3.4,3-5.6,2.5C1225.6,698,1223.3,697.7,1221,697.7z"/>
</g>
<g id="XMLID_72_" class="st3">
	<path id="XMLID_90_" class="st4" d="M359.7,609.8h-60.3c-9.3,0-16.9-7.6-16.9-16.9c0-9.3,7.6-16.9,16.9-16.9c0.8,0,1.6,0.1,2.4,0.2
		c5.9-9.7,16.4-15.7,27.8-15.7c11.4,0,21.9,6,27.8,15.7c0.8-0.1,1.6-0.2,2.4-0.2c9.3,0,16.9,7.6,16.9,16.9
		C376.6,602.3,369,609.8,359.7,609.8z M299.4,580.6c-6.8,0-12.4,5.6-12.4,12.4c0,6.8,5.6,12.4,12.4,12.4h60.3
		c6.8,0,12.4-5.6,12.4-12.4c0-6.8-5.6-12.4-12.4-12.4c-1,0-2,0.1-3,0.4c-1,0.2-2-0.2-2.5-1.1c-4.9-9.1-14.3-14.8-24.6-14.8
		c-10.3,0-19.8,5.7-24.6,14.8c-0.5,0.9-1.5,1.4-2.5,1.1C301.4,580.7,300.4,580.6,299.4,580.6z"/>
</g>
<g id="XMLID_148_" class="st1">
	<path id="XMLID_149_" class="st2" d="M1122.1,405.4c0-11.6,9.4-21,21-21c0.4,0,0.9,0,1.3,0c7-10.6,18.8-17,31.7-17
		s24.7,6.4,31.7,17c0.4,0,0.9,0,1.3,0c11.6,0,21,9.4,21,21c0,11.6-9.4,21-21,21h-66C1131.5,426.4,1122.1,417,1122.1,405.4z
		 M1206.4,394.7c-2.2,0.6-4.5-0.5-5.6-2.5c-4.9-9.1-14.3-14.8-24.7-14.8s-19.8,5.7-24.7,14.8c-1.1,2-3.4,3-5.6,2.5
		c-0.9-0.2-1.8-0.3-2.7-0.3c-6.1,0-11,4.9-11,11s4.9,11,11,11h66c6.1,0,11-4.9,11-11s-4.9-11-11-11
		C1208.1,394.4,1207.2,394.5,1206.4,394.7z"/>
</g>
<g id="XMLID_37_" class="st1">
	<path id="XMLID_351_" class="st2" d="M202,839.2h-19.9v-19.9c0-5.5-4.5-10-10-10s-10,4.5-10,10v19.9h-19.9c-5.5,0-10,4.5-10,10
		c0,5.5,4.5,10,10,10h19.9v19.9c0,5.5,4.5,10,10,10s10-4.5,10-10v-19.9H202c5.5,0,10-4.5,10-10C212,843.7,207.5,839.2,202,839.2z"/>
</g>
<g id="XMLID_141_" class="st1">
	<path id="XMLID_349_" class="st2" d="M1279,179h-10v-10c0-2.8-2.2-5-5-5s-5,2.2-5,5v10h-10c-2.8,0-5,2.2-5,5c0,2.8,2.2,5,5,5h10v10
		c0,2.8,2.2,5,5,5s5-2.2,5-5v-10h10c2.8,0,5-2.2,5-5C1284,181.2,1281.8,179,1279,179z"/>
</g>
<g id="XMLID_140_" class="st3">
	<path id="XMLID_197_" class="st4" d="M365.4,405.1h4.5v-4.5c0-1.2,1-2.3,2.3-2.3c1.2,0,2.3,1,2.3,2.3v4.5h4.5c1.2,0,2.3,1,2.3,2.3
		s-1,2.3-2.3,2.3h-4.5v4.5c0,1.2-1,2.3-2.3,2.3c-1.2,0-2.3-1-2.3-2.3v-4.5h-4.5c-1.2,0-2.3-1-2.3-2.3S364.1,405.1,365.4,405.1z"/>
</g>
<g id="XMLID_142_" class="st3">
	<circle id="XMLID_413_" class="st4" cx="1208.4" cy="593.8" r="16"/>
</g>
<g id="XMLID_144_" class="st3">
	<circle id="XMLID_345_" class="st4" cx="1144.9" cy="503.9" r="16"/>
</g>
<g id="XMLID_145_" class="st3">
	<circle id="XMLID_343_" class="st4" cx="580.3" cy="923" r="16"/>
</g>
<g id="XMLID_159_" class="st5">
	<path id="XMLID_177_" class="st2" d="M308,339.8c-2.8,0-5-2.2-5-5V90.6c0-2.8,2.2-5,5-5s5,2.2,5,5v244.2
		C313,337.6,310.8,339.8,308,339.8z"/>
</g>
<g id="XMLID_160_" class="st5">
	<path id="XMLID_176_" class="st2" d="M1264,508.9c-2.8,0-5-2.2-5-5V372.7c0-2.8,2.2-5,5-5s5,2.2,5,5v131.2
		C1269,506.6,1266.8,508.9,1264,508.9z"/>
</g>
<g id="XMLID_161_" class="st5">
	<path id="XMLID_175_" class="st2" d="M617.4,835.5c-2.8,0-5-2.2-5-5v-62.2c0-2.8,2.2-5,5-5c2.8,0,5,2.2,5,5v62.2
		C622.4,833.2,620.1,835.5,617.4,835.5z"/>
</g>
<g id="XMLID_162_" class="st5">
	<path id="XMLID_174_" class="st2" d="M63,778.8c-2.8,0-5-2.2-5-5V546.6c0-2.8,2.2-5,5-5s5,2.2,5,5v227.2
		C68,776.6,65.8,778.8,63,778.8z"/>
</g>
<g id="XMLID_166_" class="st5">
	<path id="XMLID_169_" class="st2" d="M387,928c-2.8,0-5-2.2-5-5v-30c0-2.8,2.2-5,5-5s5,2.2,5,5v30C392,925.8,389.8,928,387,928z"/>
</g>
<path id="XMLID_185_" class="st7" d="M468.4,876.5c0,15.1,12.2,27.3,27.3,27.3c15.1,0,27.3-12.2,27.3-27.3s-12.2-27.3-27.3-27.3
	C480.6,849.2,468.4,861.4,468.4,876.5z M486.1,876.5l19.1-11v22.1L486.1,876.5z"/>
<path id="XMLID_188_" class="st7" d="M182.3,396.9c0-39.2-31.8-71-71-71s-71,31.8-71,71s31.8,71,71,71S182.3,436.1,182.3,396.9z
	 M151.5,425.7L120.8,408v17.7L71,396.9l49.8-28.8v17.7l30.7-17.7V425.7z"/>
<g id="XMLID_181_" class="st6">
	<path id="XMLID_190_" class="st2" d="M327.7,775.1c-21.9,0-39.7,17.8-39.7,39.7c0,21.9,17.8,39.7,39.7,39.7
		c21.9,0,39.7-17.8,39.7-39.7C367.4,792.9,349.6,775.1,327.7,775.1z M343.2,830.2h-30.9v-30.9h30.9V830.2z"/>
</g>
<g id="XMLID_46_" class="st6">
	<path id="XMLID_152_" class="st2" d="M33.5,137.3c0,54.6,44.2,98.8,98.8,98.8c54.6,0,98.8-44.2,98.8-98.8s-44.2-98.8-98.8-98.8
		C77.7,38.5,33.5,82.7,33.5,137.3z M98.9,86.8l45.8,41V95h21.1v84.5h-21.1v-32.8l-45.8,41V86.8z"/>
</g>
<g id="XMLID_51_" class="st6">
	<path id="XMLID_52_" class="st2" d="M248.6,643.4c0-32.1-26-58.2-58.2-58.2c-32.1,0-58.2,26-58.2,58.2c0,32.1,26,58.2,58.2,58.2
		C222.6,701.5,248.6,675.5,248.6,643.4z M210.2,673l-26.9-24.1v19.3h-12.4v-49.7h12.4v19.3l26.9-24.1V673z"/>
</g>
<g id="XMLID_112_" class="st8">
	<path id="XMLID_12_" class="st2" d="M585.2,143.1c-0.5-3.5-0.7-7.1-0.7-10.7c0-42.3,34.4-76.6,76.6-76.6
		c42.3,0,76.6,34.4,76.6,76.6c0,3.6-0.3,7.1-0.7,10.7c12.5,7.8,20.9,21.7,20.9,37.5c0,24.4-19.8,44.2-44.2,44.2v-88.3
		c2.3,0,4.5,0.2,6.7,0.5c0.1-1.5,0.2-3,0.2-4.6c0-32.8-26.7-59.5-59.5-59.5c-32.8,0-59.5,26.7-59.5,59.5c0,1.5,0.1,3,0.2,4.6
		c2.2-0.3,4.4-0.5,6.7-0.5v88.3c-24.4,0-44.2-19.8-44.2-44.2C564.3,164.8,572.7,150.9,585.2,143.1z"/>
</g>
<g id="XMLID_32_" class="st8">
	<g id="XMLID_99_" class="st9">
		<path id="XMLID_77_" class="st2" d="M1125,214.5c0,7.7,6.3,14,14,14c7.7,0,14-6.3,14-14c0-7.7-6.3-14-14-14
			C1131.3,200.6,1125,206.8,1125,214.5z M1133.1,214.5c0-3.3,2.7-5.9,5.9-5.9c3.3,0,5.9,2.7,5.9,5.9c0,3.3-2.7,5.9-5.9,5.9
			C1135.7,220.5,1133.1,217.8,1133.1,214.5z"/>
	</g>
	<g id="XMLID_38_">
		<g id="XMLID_113_">
			<path id="XMLID_57_" class="st2" d="M1139,200.6c-7.7,0-14,6.3-14,14c0,2.1,0.5,4,1.3,5.8l-32.4,14.8c-2.9-6.3-4.5-13.2-4.5-20.6
				c0-27.4,22.2-49.6,49.6-49.6c13,0,24.9,5,33.8,13.3l-24.3,26.1C1146,202,1142.7,200.6,1139,200.6z"/>
		</g>
		<g id="XMLID_114_">
			<path id="XMLID_54_" class="st10" d="M1093.9,235.1l32.4-14.8c0.8,1.7,1.9,3.2,3.2,4.4l-24.3,26.1
				C1100.5,246.5,1096.6,241.1,1093.9,235.1z"/>
		</g>
		<g id="XMLID_115_">
			<path id="XMLID_43_" class="st10" d="M1148.5,204.3l24.3-26.1c4.8,4.4,8.6,9.8,11.4,15.7l-32.4,14.8
				C1150.9,207.1,1149.8,205.6,1148.5,204.3z"/>
		</g>
		<g id="XMLID_117_">
			<path id="XMLID_21_" class="st2" d="M1139,228.5c7.7,0,14-6.3,14-14c0-2.1-0.5-4-1.3-5.8l32.4-14.8c2.9,6.3,4.5,13.2,4.5,20.6
				c0,27.4-22.2,49.6-49.6,49.6c-13,0-24.9-5-33.8-13.3l24.3-26.1C1132,227.1,1135.3,228.5,1139,228.5z"/>
		</g>
	</g>
</g>
<g id="XMLID_17_" class="st8">
	<g id="XMLID_224_" class="st9">
		<path id="XMLID_228_" class="st2" d="M1339.5,541.6c0,5.2,4.2,9.5,9.5,9.5s9.5-4.2,9.5-9.5s-4.2-9.5-9.5-9.5
			S1339.5,536.3,1339.5,541.6z M1345,541.6c0-2.2,1.8-4,4-4s4,1.8,4,4c0,2.2-1.8,4-4,4S1345,543.8,1345,541.6z"/>
	</g>
	<g id="XMLID_18_">
		<g id="XMLID_198_">
			<path id="XMLID_199_" class="st2" d="M1349,532.1c-5.2,0-9.5,4.2-9.5,9.5c0,1.4,0.3,2.7,0.9,3.9l-22,10c-1.9-4.2-3-9-3-13.9
				c0-18.6,15-33.6,33.6-33.6c8.8,0,16.9,3.4,22.9,9l-16.4,17.7C1353.8,533.1,1351.5,532.1,1349,532.1z"/>
		</g>
		<g id="XMLID_192_">
			<path id="XMLID_193_" class="st10" d="M1318.4,555.5l22-10c0.5,1.1,1.3,2.2,2.2,3l-16.4,17.7
				C1322.9,563.2,1320.3,559.6,1318.4,555.5z"/>
		</g>
		<g id="XMLID_179_">
			<path id="XMLID_191_" class="st10" d="M1355.4,534.6l16.4-17.7c3.2,3,5.9,6.6,7.7,10.7l-22,10
				C1357.1,536.5,1356.3,535.5,1355.4,534.6z"/>
		</g>
		<g id="XMLID_50_">
			<path id="XMLID_167_" class="st2" d="M1349,551c5.2,0,9.5-4.2,9.5-9.5c0-1.4-0.3-2.7-0.9-3.9l22-10c1.9,4.2,3,9,3,13.9
				c0,18.6-15,33.6-33.6,33.6c-8.8,0-16.9-3.4-22.9-9l16.4-17.7C1344.3,550.1,1346.5,551,1349,551z"/>
		</g>
	</g>
</g>
<g id="XMLID_103_" class="st6">
	<path id="XMLID_255_" class="st2" d="M184.6,478.3c-9.1,0-16.4,7.4-16.4,16.4c0,9.1,7.4,16.4,16.4,16.4c9.1,0,16.4-7.4,16.4-16.4
		C201.1,485.6,193.7,478.3,184.6,478.3z M191.1,497.3h-3.8v3.8c0,1.5-1.2,2.6-2.6,2.6s-2.6-1.2-2.6-2.6v-3.8h-3.8
		c-1.5,0-2.6-1.2-2.6-2.6c0-1.5,1.2-2.6,2.6-2.6h3.8v-3.8c0-1.5,1.2-2.6,2.6-2.6s2.6,1.2,2.6,2.6v3.8h3.8c1.5,0,2.6,1.2,2.6,2.6
		C193.7,496.1,192.5,497.3,191.1,497.3z"/>
	<path id="XMLID_168_" class="st2" d="M235.7,503.9c-9.1,0-16.4,7.4-16.4,16.4c0,9.1,7.4,16.4,16.4,16.4c9.1,0,16.4-7.4,16.4-16.4
		C252.1,511.3,244.7,503.9,235.7,503.9z M235.7,529.6c-1.3,0-2.3-1-2.3-2.3c0-1.3,1-2.3,2.3-2.3c1.3,0,2.3,1,2.3,2.3
		C238,528.6,237,529.6,235.7,529.6z M235.7,522.7c-1.3,0-2.3-1-2.3-2.3c0-1.3,1-2.3,2.3-2.3c1.3,0,2.3,1,2.3,2.3
		C238,521.6,237,522.7,235.7,522.7z M235.7,515.7c-1.3,0-2.3-1-2.3-2.3c0-1.3,1-2.3,2.3-2.3c1.3,0,2.3,1,2.3,2.3
		C238,514.7,237,515.7,235.7,515.7z"/>
</g>
<g id="XMLID_62_">
	<g id="XMLID_405_" class="st11">
		<path id="XMLID_406_" class="st12" d="M1090.3,783V319c0-2.8-2.2-5-5-5H314.7c-2.8,0-5,2.2-5,5v464c0,2.8,2.2,5,5,5h770.6
			C1088,788,1090.3,785.8,1090.3,783z"/>
	</g>
	<g id="XMLID_61_">
		<g id="XMLID_403_">
			<path id="XMLID_404_" class="st13" d="M1090.3,756V292c0-2.8-2.2-5-5-5H314.7c-2.8,0-5,2.2-5,5v464c0,2.8,2.2,5,5,5h770.6
				C1088,761,1090.3,758.8,1090.3,756z"/>
		</g>
		<g id="XMLID_8_">
			<path id="XMLID_262_" class="st14" d="M1090.3,728.7v-464c0-2.8-2.2-5-5-5H314.7c-2.8,0-5,2.2-5,5v464c0,2.8,2.2,5,5,5h770.6
				C1088,733.7,1090.3,731.4,1090.3,728.7z"/>
		</g>
		<g id="XMLID_9_">
			<rect id="XMLID_306_" x="374" y="298.7" class="st2" width="586.6" height="396"/>
		</g>
		<g id="XMLID_20_">
			<path id="XMLID_305_" class="st15" d="M347,550.5V442.9c0-3.3-2.7-6-6-6l0,0c-3.3,0-6,2.7-6,6v107.6c0,3.3,2.7,6,6,6l0,0
				C344.3,556.5,347,553.8,347,550.5z"/>
		</g>
		<g id="XMLID_128_">
			<rect id="XMLID_476_" x="531.3" y="264.1" class="st16" width="12.8" height="4.3"/>
		</g>
		<g id="XMLID_60_">
			<g id="XMLID_15_">
				<g id="XMLID_110_">
					<rect id="XMLID_304_" x="315.7" y="345.9" class="st13" width="6" height="301.6"/>
				</g>
			</g>
			<g id="XMLID_124_">
				<rect id="XMLID_478_" x="380.5" y="264.1" class="st16" width="140.5" height="4.3"/>
			</g>
			<g id="XMLID_309_">
				<rect id="XMLID_310_" x="382.5" y="722.6" class="st13" width="469.8" height="6"/>
				<rect id="XMLID_311_" x="881.7" y="722.6" class="st13" width="64.5" height="6"/>
			</g>
			<g id="XMLID_400_">
				<rect id="XMLID_402_" x="1075.3" y="275.7" class="st13" width="6" height="117.3"/>
				<rect id="XMLID_401_" x="1075.3" y="400.3" class="st13" width="6" height="16.1"/>
			</g>
		</g>
		<g id="XMLID_59_">
			<circle id="XMLID_123_" class="st13" cx="1023.1" cy="498.6" r="46.9"/>
			<g id="XMLID_366_" class="st11">
				<path id="XMLID_409_" class="st12" d="M1023.1,451.8c-2.4,0-4.8,0.2-7.1,0.5c22.5,3.4,39.8,22.9,39.8,46.3
					c0,23.5-17.3,42.9-39.8,46.3c2.3,0.3,4.7,0.5,7.1,0.5c25.9,0,46.9-21,46.9-46.9C1070,472.7,1049,451.8,1023.1,451.8z"/>
			</g>
			<path id="XMLID_129_" class="st15" d="M1037.2,504.8v-12.2c0-4.4-3.6-8-8-8H1017c-4.4,0-8,3.6-8,8v12.2c0,4.4,3.6,8,8,8h12.2
				C1033.7,512.8,1037.2,509.2,1037.2,504.8z"/>
		</g>
		<g id="XMLID_369_">
			<rect id="XMLID_34_" x="374" y="337.1" class="st17" width="586.6" height="306.2"/>
			<circle id="XMLID_355_" class="st18" cx="667.3" cy="490.2" r="80"/>
			<g id="XMLID_358_">
				<polygon id="XMLID_360_" class="st19" points="635.7,441.8 635.7,538.6 715.9,490.2 				"/>
			</g>
			<g id="XMLID_365_">
				<polygon id="XMLID_367_" class="st18" points="404.1,658.3 404.1,676.5 419.2,667.4 				"/>
			</g>
			<rect id="XMLID_356_" x="374" y="634.9" class="st20" width="586.6" height="8.4"/>
			<rect id="XMLID_359_" x="374" y="634.9" class="st21" width="414.3" height="8.4"/>
			<rect id="XMLID_361_" x="374" y="634.9" class="st22" width="296.8" height="8.4"/>
			<circle id="XMLID_357_" class="st18" cx="670.8" cy="639" r="8.1"/>
			<circle id="XMLID_364_" class="st17" cx="670.8" cy="639" r="5.4"/>
			<polygon id="XMLID_390_" class="st18" points="440.3,661.1 440.3,666.8 430.9,661.1 430.9,673.7 440.3,668 440.3,673.7 
				442.3,673.7 442.3,661.1 			"/>
			<g id="XMLID_372_">
				<g id="XMLID_380_">
					<g id="XMLID_381_">
						<path id="XMLID_382_" class="st18" d="M897.4,669.7v-3.4l-1.8-0.2c-0.1-0.5-0.3-0.9-0.6-1.4l1.1-1.4l-2.4-2.4l-1.4,1.1
							c-0.4-0.2-0.9-0.4-1.4-0.6l-0.2-1.8h-3.4l-0.2,1.8c-0.5,0.1-0.9,0.3-1.4,0.6l-1.4-1.1l-2.4,2.4l1.1,1.4
							c-0.2,0.4-0.4,0.9-0.6,1.4l-1.8,0.2v3.4l1.8,0.2c0.1,0.5,0.3,0.9,0.6,1.4l-1.1,1.4l2.4,2.4l1.4-1.1c0.4,0.2,0.9,0.4,1.4,0.6
							l0.2,1.8h3.4l0.2-1.8c0.5-0.1,0.9-0.3,1.4-0.6l1.4,1.1l2.4-2.4l-1.1-1.4c0.2-0.4,0.4-0.9,0.6-1.4L897.4,669.7z M889.1,672
							c-2.2,0-4.1-1.8-4.1-4.1c0-2.2,1.8-4.1,4.1-4.1c2.2,0,4.1,1.8,4.1,4.1C893.1,670.2,891.3,672,889.1,672z"/>
					</g>
				</g>
			</g>
			<g id="XMLID_375_">
				<g id="XMLID_373_">
					<polygon id="XMLID_399_" class="st18" points="914.2,662.4 912.2,662.4 912.2,657.4 917.2,657.4 917.2,659.4 914.2,659.4 					
						"/>
				</g>
				<g id="XMLID_387_">
					<polygon id="XMLID_398_" class="st18" points="933.4,678.5 928.4,678.5 928.4,676.5 931.4,676.5 931.4,673.6 933.4,673.6 					
						"/>
				</g>
				<g id="XMLID_376_">
					<polygon id="XMLID_397_" class="st18" points="933.4,662.4 931.4,662.4 931.4,659.4 928.4,659.4 928.4,657.4 933.4,657.4 					
						"/>
				</g>
				<g id="XMLID_388_">
					<polygon id="XMLID_396_" class="st18" points="917.2,678.5 912.2,678.5 912.2,673.6 914.2,673.6 914.2,676.5 917.2,676.5 					
						"/>
				</g>
			</g>
			<g id="XMLID_386_">
				<polygon id="XMLID_385_" class="st18" points="854.5,660.5 850.3,664.7 845.8,664.7 845.8,668 845.8,671.2 850.3,671.2 
					854.5,675.4 856.6,675.4 856.6,668 856.6,660.5 				"/>
				<g id="XMLID_377_">
					<g id="XMLID_371_">
						<path id="XMLID_395_" class="st18" d="M858.1,676.1v-2c3.4,0,6.1-2.8,6.1-6.1c0-3.4-2.8-6.1-6.1-6.1v-2c4.5,0,8.1,3.6,8.1,8.1
							C866.3,672.4,862.6,676.1,858.1,676.1z"/>
					</g>
					<g id="XMLID_378_">
						<path id="XMLID_394_" class="st18" d="M858.1,672.8v-2c1.6,0,2.9-1.3,2.9-2.9c0-1.6-1.3-2.9-2.9-2.9v-2c2.7,0,4.9,2.2,4.9,4.9
							C863,670.6,860.8,672.8,858.1,672.8z"/>
					</g>
				</g>
			</g>
			<g id="XMLID_391_">
				<path id="XMLID_393_" class="st2" d="M924.6,329.7l-9.9-5.3c-0.2-0.1-0.4-0.4-0.4-0.7c0-0.3,0.2-0.5,0.4-0.6l9.8-4.6l0.4,0.9
					l-9.3,4.4l9.4,5L924.6,329.7z"/>
			</g>
			<circle id="XMLID_362_" class="st2" cx="914.6" cy="323.8" r="2.6"/>
			<circle id="XMLID_370_" class="st2" cx="924.8" cy="319" r="2.6"/>
			<circle id="XMLID_389_" class="st2" cx="924.8" cy="329.3" r="2.6"/>
		</g>
		<g id="XMLID_326_" class="st11">
			<polygon id="XMLID_350_" class="st12" points="960.6,298.7 374,298.7 374,314 945.4,314 945.4,641.3 960.6,641.3 			"/>
		</g>
	</g>
</g>
<g id="XMLID_1_">
	<defs>
		<rect id="XMLID_6_" width="1400" height="980"/>
	</defs>
	<clipPath id="XMLID_64_">
		<use xlink:href="#XMLID_6_"  style="overflow:visible;"/>
	</clipPath>
	<g id="XMLID_392_" class="st23">
		<g id="XMLID_307_" class="st11">
			<path id="XMLID_346_" class="st12" d="M1356.1,812.5c0,0-63.4-23.9-98.4-79.4c-35.1-55.5-53.7-71.2-125.3-148.7
				c-71.6-77.4-77.1-6.2-77.1-6.2s-35.4-19-51.5,6.5c-5.1,8.1-8.3,20.6-7.7,39.6c0,0-37.4-14.2-57.2,5.5
				c-8.8,8.7-14.1,24.1-11.3,50.2c0,0-161.3-186.5-213.8-175.5c-3.3,0.7-6.2,2.2-8.6,4.6C665.2,549,891,749.9,891,749.9
				s-22.6-2.1-44.4,2.3c-19.3,3.9-38,13-40,33.1c-4.2,42.9,88,19.4,147.6,67.9c59.5,48.6,111.8,62.1,141.7,62.8
				c30,0.7,99.5,57.2,99.5,57.2l-10.7,10.7l27.9,27.9l181.5-181.5l-27.9-27.9L1356.1,812.5z"/>
		</g>
		<g id="XMLID_7_">
			<g id="XMLID_10_">
				<g id="XMLID_315_">
					<path id="XMLID_335_" class="st24" d="M1148.8,568c-71.6-77.4-77.1-6.2-77.1-6.2s-35.4-19-51.5,6.5c-5.1,8.1-8.3,20.6-7.7,39.6
						c0,0-37.4-14.2-57.2,5.5c-8.8,8.7-14.1,24.1-11.3,50.2c0,0-161.3-186.5-213.8-175.5c-3.3,0.7-6.2,2.2-8.6,4.6
						c-40,40,185.7,240.9,185.7,240.9s-22.6-2.1-44.4,2.3c-19.3,3.9-38,13-40,33.1c-4.2,42.9,88,19.4,147.6,67.9
						c59.5,48.6,111.8,62.1,141.7,62.8c30,0.7,99.5,57.2,99.5,57.2l138.4-138.4l22.4-22.4c0,0-63.4-23.9-98.4-79.4
						C1239.1,661.1,1220.4,645.4,1148.8,568z"/>
					<g id="XMLID_308_">
						<path id="XMLID_319_" class="st25" d="M820.1,551.9C885.8,625,932,662.8,932,662.8l12.1,0.7c0,0-161.3-186.5-213.8-175.5
							C735.5,487.1,761.8,487.1,820.1,551.9z"/>
						<path id="XMLID_320_" class="st25" d="M996.3,616.4l16.3-8.6c0,0-37.4-14.2-57.2,5.5C966.1,606.2,982.8,600.1,996.3,616.4z"/>
						<path id="XMLID_323_" class="st25" d="M1060.6,567.8l11.1-6c0,0-35.4-19-51.5,6.5C1029.6,558.8,1045.1,549.5,1060.6,567.8z"/>
						<path id="XMLID_324_" class="st25" d="M1148.8,568c-71.6-77.4-77.1-6.2-77.1-6.2s3.7-31,28.3-24.7
							c24.7,6.4,130.6,145.6,164.2,209.1l85.9,72.2l22.4-22.4c0,0-63.4-23.9-98.4-79.4C1239.1,661.1,1220.4,645.4,1148.8,568z"/>
						<g id="XMLID_316_">
							<path id="XMLID_325_" class="st26" d="M1100.1,537.1c-24.7-6.4-28.3,24.7-28.3,24.7l-11.1,6c-15.5-18.3-31-9-40.3,0.4
								c-5.1,8.1-8.3,20.6-7.7,39.6l-16.3,8.6c-13.6-16.3-30.2-10.2-41-3.1c-8.8,8.7-14.1,24.1-11.3,50.2l-12.1-0.7
								c0,0-46.2-37.8-111.9-110.9c-58.3-64.8-84.6-64.8-89.8-63.9c-3.3,0.7-6.2,2.2-8.6,4.6c-40,40,185.7,240.9,185.7,240.9
								l98.9,100.7c0,0-43-43.6-88.5-81.4c-19.2-16-38.7-18.9-54.8-17c-19.3,3.9-38,13-40,33.1c-4.2,42.9,88,19.4,147.6,67.9
								c59.5,48.6,111.8,62.1,141.7,62.8c30,0.7,99.5,57.2,99.5,57.2l138.4-138.4l-85.9-72.2
								C1230.7,682.7,1124.7,543.5,1100.1,537.1z"/>
							<path id="XMLID_318_" class="st25" d="M917.8,752.8c45.5,37.8,88.5,81.4,88.5,81.4l-98.9-100.7c0,0-22.6-2.1-44.4,2.3
								C879.1,733.9,898.6,736.8,917.8,752.8z"/>
						</g>
						<path id="XMLID_317_" class="st24" d="M737,506.4c-8.4,8.4-14.6,17.9-0.7,31.8c13.9,13.9,21.4,13.3,33.6,1.1
							c12.2-12.2,12.8-19.7-1.1-33.6C754.9,491.8,745.4,498,737,506.4z"/>
						<path id="XMLID_314_" class="st24" d="M837.7,781.4c-0.2,4.4,2.9,7.8,15.1,10.7c12.2,2.9,30.3,7.3,31.2-1.9
							c1-9.2-16.4-11-23.6-12.3C853.3,776.5,838.1,771.5,837.7,781.4z"/>
					</g>
				</g>
				<g id="XMLID_322_">
					<path id="XMLID_338_" class="st25" d="M815.8,568l-18.4,18.4c-0.8,0.8-2,0.8-2.7,0c-0.8-0.8-0.8-2,0-2.7l18.4-18.4
						c0.8-0.8,2-0.8,2.7,0C816.6,566,816.6,567.2,815.8,568z"/>
				</g>
				<g id="XMLID_327_">
					<path id="XMLID_337_" class="st25" d="M819,576.6l-12.9,12.9c-0.8,0.8-2,0.8-2.7,0s-0.8-2,0-2.7l12.9-12.9c0.8-0.8,2-0.8,2.7,0
						S819.7,575.8,819,576.6z"/>
				</g>
				<g id="XMLID_329_">
					<path id="XMLID_336_" class="st25" d="M874.8,618.5L848,645.4c-0.8,0.8-2,0.8-2.7,0s-0.8-2,0-2.7l26.8-26.8
						c0.8-0.8,2-0.8,2.7,0C875.6,616.5,875.6,617.8,874.8,618.5z"/>
				</g>
				<g id="XMLID_330_">
					<path id="XMLID_334_" class="st25" d="M974.2,833.1c-0.6,0.6-1.7,0.8-2.5,0.2c-0.9-0.6-1.1-1.8-0.5-2.7L981,816
						c0.6-0.9,1.8-1.1,2.7-0.5c0.9,0.6,1.1,1.8,0.5,2.7l-9.9,14.6C974.3,832.9,974.2,833,974.2,833.1z"/>
				</g>
				<g id="XMLID_331_">
					<path id="XMLID_333_" class="st25" d="M964.3,824.6c-0.6,0.6-1.7,0.8-2.5,0.2c-0.9-0.6-1.1-1.8-0.5-2.7l7.3-10.9
						c0.6-0.9,1.8-1.1,2.7-0.5c0.9,0.6,1.1,1.8,0.5,2.7l-7.3,10.9C964.5,824.4,964.4,824.5,964.3,824.6z"/>
				</g>
				<g id="XMLID_328_">
					<path id="XMLID_332_" class="st25" d="M879.6,631.3l-18.8,18.8c-0.8,0.8-2,0.8-2.7,0s-0.8-2,0-2.7l18.8-18.8
						c0.8-0.8,2-0.8,2.7,0S880.4,630.5,879.6,631.3z"/>
				</g>
			</g>
			
				<rect id="XMLID_16_" x="1375.4" y="824.4" transform="matrix(0.7071 -0.7071 0.7071 0.7071 -333.5139 1392.1975)" class="st15" width="276.7" height="548.7"/>
			
				<rect id="XMLID_11_" x="1550.8" y="751.7" transform="matrix(-0.7071 0.7071 -0.7071 -0.7071 3433.6987 629.8185)" class="st27" width="71.2" height="548.7"/>
			
				<rect id="XMLID_342_" x="1286.1" y="762.4" transform="matrix(-0.7071 -0.7071 0.7071 -0.7071 1599.3503 2443.9636)" class="st2" width="39.5" height="256.7"/>
			<g id="XMLID_312_" class="st11">
				<polygon id="XMLID_339_" class="st12" points="1229,995.4 1229,995.4 1410.5,814 1382.6,786 				"/>
			</g>
		</g>
	</g>
</g>
</svg>
